# xmcd CD database file
#
# Track frame offsets:
#	150
#	16152
#	36130
#	57310
#	74582
#	91345
#	109092
#	128382
#	144382
#	163565
#	183050
#	196815
#	213987
#	234942
#
# Disc length: 3404 seconds
#
# Revision: 0
# Processed by: cddbd v1.5.1PL0 Copyright (c) Steve Scherf et al.
# Submitted via: CDex 1.51
#
DISCID=b00d4a0e
DTITLE=五木ひろし - 五木ひろし全曲集 スーパーヒットコレクション Disc 2
DYEAR=1996
DGENRE=Country
TTITLE0=よこはま・たそがれ
TTITLE1=細雪
TTITLE2=長良川艶歌
TTITLE3=千曲川
TTITLE4=人生かくれんぼ
TTITLE5=デュオ しのび逢い
TTITLE6=契り
TTITLE7=倖せさがして
TTITLE8=べにばな
TTITLE9=浪花盃
TTITLE10=浜昼顔
TTITLE11=ふたりの夜明け
TTITLE12=愛しつづけるボレロ
TTITLE13=心
EXTD=YEAR: 1996
EXTT0=
EXTT1=
EXTT2=
EXTT3=
EXTT4=
EXTT5=
EXTT6=
EXTT7=
EXTT8=
EXTT9=
EXTT10=
EXTT11=
EXTT12=
EXTT13=
PLAYORDER=
